<?xml version="1.0" encoding="UTF-8"?>
<svg version="1.1" xmlns="http://www.w3.org/2000/svg" width="299" height="81">
<path d="M0 0 C9.66568452 8.39434223 14.25865897 19.92091664 15.18359375 32.49609375 C15.50052985 44.44644915 12.385648 57.03023994 4.75 66.4375 C-0.49224939 71.84921866 -5.85874105 75.21945832 -13.5 75.625 C-21.16947457 75.21796085 -26.52794536 71.84465206 -31.75 66.375 C-40.44057161 55.70838195 -43.0471739 42.65367659 -42.24267578 29.23095703 C-41.00171344 17.82259299 -35.84940988 8.33073291 -27.5 0.625 C-19.23227792 -6.01806054 -8.69922955 -5.71707804 0 0 Z M-15 2 C-15.37809814 3.19488037 -15.75619629 4.38976074 -16.14575195 5.62084961 C-17.5596125 10.08835347 -18.9743774 14.55557052 -20.3894043 19.02270508 C-20.99967403 20.94971125 -21.60970421 22.87679331 -22.21948242 24.80395508 C-23.10010579 27.58695534 -23.98161353 30.3696742 -24.86328125 33.15234375 C-25.13215652 34.00271713 -25.4010318 34.85309052 -25.67805481 35.72923279 C-27.40299152 41.16964902 -29.1798109 46.59070995 -31 52 C-30.34 52 -29.68 52 -29 52 C-27.37053772 49.69404616 -25.8564103 47.39803293 -24.375 45 C-23.95476563 44.33226562 -23.53453125 43.66453125 -23.1015625 42.9765625 C-22.06135408 41.32168546 -21.02985949 39.66133712 -20 38 C-18.08460953 42.96260257 -16.39038565 47.86626838 -15 53 C-14.67 53 -14.34 53 -14 53 C-14 36.17 -14 19.34 -14 2 C-14.33 2 -14.66 2 -15 2 Z " fill="#293D4B" transform="translate(46,5)"/>
<path d="M0 0 C2 1 2 1 3.0703125 3.80078125 C3.59238281 5.53908203 3.59238281 5.53908203 4.125 7.3125 C4.47820313 8.46363281 4.83140625 9.61476563 5.1953125 10.80078125 C6 14 6 14 6 18 C8.12838023 17.20999627 8.12838023 17.20999627 8.68603516 15.32592773 C8.88503418 14.61895752 9.0840332 13.9119873 9.2890625 13.18359375 C9.50820313 12.41982422 9.72734375 11.65605469 9.953125 10.86914062 C10.28570312 9.66547852 10.28570312 9.66547852 10.625 8.4375 C10.85445312 7.63119141 11.08390625 6.82488281 11.3203125 5.99414062 C11.88724154 3.99807797 12.44452643 1.99928081 13 0 C13.66 0 14.32 0 15 0 C17.34404948 2.89598647 19.25278217 6.10825779 21.25 9.25 C21.83007812 10.12269531 22.41015625 10.99539062 23.0078125 11.89453125 C23.54664063 12.73886719 24.08546875 13.58320312 24.640625 14.453125 C25.14110352 15.22817383 25.64158203 16.00322266 26.15722656 16.80175781 C27 19 27 19 26.26025391 21.16845703 C24.7648645 23.34172539 23.12824935 24.90900905 21.125 26.625 C20.44695313 27.21539062 19.76890625 27.80578125 19.0703125 28.4140625 C13.62381989 32.58628137 8.71119945 32.7353464 2 32 C-4.3590145 30.18469159 -8.14515153 26.19820476 -12 21 C-10.60022169 17.15583269 -8.797262 13.92182913 -6.5625 10.5 C-4.30917425 7.03484247 -2.10682385 3.55647328 0 0 Z " fill="#B5B6B6" transform="translate(25,46)"/>
<path d="M0 0 C74.91 0 149.82 0 227 0 C227 0.99 227 1.98 227 3 C223.46415319 4.1786156 220.68866095 4.11644091 216.95541382 4.10534668 C216.23819224 4.10454259 215.52097065 4.1037385 214.78201509 4.10291004 C212.38377192 4.0988961 209.98562094 4.08757292 207.58740234 4.07617188 C205.87646264 4.07159933 204.16552185 4.06741394 202.45458031 4.063591 C197.89173119 4.05182621 193.32893596 4.03330751 188.76611996 4.01249313 C186.06985443 4.0003155 183.37358678 3.9892999 180.67731476 3.97866821 C168.64754605 3.93051265 156.61788827 3.86636196 144.58821917 3.79807091 C139.47681619 3.76928339 134.36540665 3.74171011 129.2539978 3.71398926 C119.64336511 3.6616927 110.03273849 3.60835804 100.42211378 3.5546174 C89.45167551 3.493326 78.48123073 3.43324213 67.51078534 3.37324238 C45.00718291 3.25013913 22.50358876 3.12557572 0 3 C0 2.01 0 1.02 0 0 Z " fill="#CE8958" transform="translate(66,56)"/>
<path d="M0 0 C6.68317419 0.71576715 10.28975143 2.27060408 15 7 C23.20176935 17.89874756 26.0055239 30.52245165 25 44 C23.95289269 49.9793438 22.98421477 55.27920771 19 60 C16.83215213 55.18463678 15.15539692 50.40561953 13.75 45.3125 C11.89047587 38.75584263 9.75015253 32.34741528 7.4375 25.9375 C4.37103287 17.4061238 1.98789591 8.84058058 0 0 Z " fill="#8C8D8D" transform="translate(34,3)"/>
<path d="M0 0 C-0.57451727 5.86322421 -1.76903237 11.11191331 -3.58203125 16.70703125 C-3.83748215 17.51307297 -4.09293304 18.31911469 -4.35612488 19.14958191 C-4.89504471 20.84563381 -5.4372775 22.54063626 -5.98266602 24.23461914 C-6.80617535 26.79285247 -7.61981532 29.35405343 -8.43164062 31.91601562 C-11.11316269 40.34352467 -13.85991844 48.72944726 -17 57 C-22.44717859 51.83344203 -23.11641561 44.43333763 -23.40893555 37.16894531 C-23.57521959 25.27039788 -20.82594167 14.25234483 -13 5 C-8.66625849 0.72787567 -6.07581712 -1.43900932 0 0 Z " fill="#E4E5E6" transform="translate(29,5)"/>
<path d="M0 0 C2 1 2 1 2.73022461 2.71484375 C2.95202393 3.44832031 3.17382324 4.18179687 3.40234375 4.9375 C3.65306641 5.75089844 3.90378906 6.56429688 4.16210938 7.40234375 C4.41798828 8.25957031 4.67386719 9.11679688 4.9375 10 C5.44588797 11.66688845 5.95500058 13.33355607 6.46484375 15 C6.84032349 16.24305908 6.84032349 16.24305908 7.22338867 17.51123047 C7.98977865 19.96724414 8.82440128 22.39127331 9.671875 24.8203125 C10.70874453 27.90614484 11.39078295 30.58711593 11.3125 33.875 C11.30863281 34.59429687 11.30476563 35.31359375 11.30078125 36.0546875 C11 38 11 38 9 41 C7.68 41 6.36 41 5 41 C4.83564453 42.051875 4.83564453 42.051875 4.66796875 43.125 C3.67093995 49.09096094 2.31895621 54.41342368 0 60 C-0.66 60 -1.32 60 -2 60 C-3.65 54.39 -5.3 48.78 -7 43 C-9.97 47.29 -12.94 51.58 -16 56 C-16.66 55.01 -17.32 54.02 -18 53 C-17.34 53 -16.68 53 -16 53 C-15.61714844 51.92685547 -15.61714844 51.92685547 -15.2265625 50.83203125 C-13.9123112 47.79753382 -12.30503984 45.36811089 -10.375 42.6875 C-9.74335938 41.80449219 -9.11171875 40.92148437 -8.4609375 40.01171875 C-7.97882812 39.34785156 -7.49671875 38.68398438 -7 38 C-5 40 -5 40 -2 50 C-2 33.83 -2 17.66 -2 1 C-1.34 0.67 -0.68 0.34 0 0 Z " fill="#22394A" transform="translate(33,4)"/>
<path d="M0 0 C74.91 0 149.82 0 227 0 C227 0.99 227 1.98 227 3 C152.09 2.34 77.18 1.68 0 1 C0 0.67 0 0.34 0 0 Z " fill="#C3763D" transform="translate(66,56)"/>
<path d="M0 0 C0.680625 -0.20625 1.36125 -0.4125 2.0625 -0.625 C4 -1 4 -1 6.6015625 0.02734375 C9 2 9 2 9.48828125 5.35546875 C9.43027344 6.62003906 9.37226562 7.88460937 9.3125 9.1875 C9.24482422 11.09595703 9.24482422 11.09595703 9.17578125 13.04296875 C9.11777344 14.01878906 9.05976562 14.99460937 9 16 C7.35 16 5.7 16 4 16 C3.67 12.37 3.34 8.74 3 5 C2.34 5 1.68 5 1 5 C0.67 8.63 0.34 12.26 0 16 C-4 17 -4 17 -6 16 C-6 12.04 -6 8.08 -6 4 C-6.99 4 -7.98 4 -9 4 C-9.33 7.96 -9.66 11.92 -10 16 C-10.99 16.33 -11.98 16.66 -13 17 C-13.99 16.34 -14.98 15.68 -16 15 C-15.67 10.05 -15.34 5.1 -15 0 C-9.58925587 -0.73782875 -5.38835879 -1.00248536 0 0 Z " fill="#283B4A" transform="translate(112,36)"/>
<path d="M0 0 C-3.32604951 1.10868317 -6.53058454 1.54177532 -10 2 C-10.10505859 3.2893042 -10.21011719 4.5786084 -10.31835938 5.90698242 C-10.89053959 11.01788119 -12.26295675 15.6312083 -13.90625 20.48828125 C-14.19101196 21.35390182 -14.47577393 22.2195224 -14.76916504 23.1113739 C-15.67118086 25.84789947 -16.58514423 28.58024342 -17.5 31.3125 C-18.41223878 34.06341741 -19.32200998 36.81513751 -20.23083496 39.56718445 C-20.79477502 41.27197827 -21.36115947 42.97596595 -21.93029785 44.67903137 C-22.1872644 45.4505101 -22.44423096 46.22198883 -22.70898438 47.0168457 C-22.93469116 47.69141312 -23.16039795 48.36598053 -23.39294434 49.06098938 C-24.28075189 51.89675613 -24.94894879 54.69369276 -25.4375 57.625 C-26 60 -26 60 -28 62 C-30.9137441 60.96766719 -31.83853065 60.32755212 -33.23046875 57.50390625 C-33.54628906 56.53324219 -33.86210938 55.56257813 -34.1875 54.5625 C-34.51105469 53.59441406 -34.83460937 52.62632813 -35.16796875 51.62890625 C-35.57982422 50.32759766 -35.57982422 50.32759766 -36 49 C-36.495 47.515 -36.495 47.515 -37 46 C-38.07017564 32.36290468 -36.85572114 18.53596411 -27.6015625 7.64453125 C-20.15615452 -0.00063158 -10.49664383 -5.98451187 0 0 Z M-23 5 C-30.67812527 12.01554593 -34.62480683 22.34753647 -35.203125 32.6015625 C-35.81678708 46.01167104 -35.81678708 46.01167104 -30.44067383 57.63354492 C-29.96525146 58.0844751 -29.4898291 58.53540527 -29 59 C-27.38051927 54.16669902 -25.76320543 49.33267973 -24.14770508 44.49804688 C-23.60041629 42.86113986 -23.05258457 41.22441424 -22.50415039 39.58789062 C-20.65320149 34.06388548 -18.81906633 28.53458443 -17 23 C-16.74764587 22.23606934 -16.49529175 21.47213867 -16.23529053 20.68505859 C-15.51704045 18.50096684 -14.8095281 16.31370175 -14.10546875 14.125 C-13.6983667 12.86945312 -13.29126465 11.61390625 -12.87182617 10.3203125 C-12.09284029 7.35357824 -11.8053091 5.03992326 -12 2 C-16.97738819 0.24327476 -19.04364871 1.77032548 -23 5 Z " fill="#414A52" transform="translate(41,3)"/>
<path d="M0 0 C1.4540625 0.0309375 1.4540625 0.0309375 2.9375 0.0625 C4.30707005 3.32709506 5.65544485 6.60003177 7 9.875 C7.58491211 11.2681543 7.58491211 11.2681543 8.18164062 12.68945312 C8.54580078 13.58212891 8.90996094 14.47480469 9.28515625 15.39453125 C9.62554932 16.21671143 9.96594238 17.0388916 10.31665039 17.88598633 C10.9375 20.0625 10.9375 20.0625 9.9375 23.0625 C8.9475 23.3925 7.9575 23.7225 6.9375 24.0625 C5.4375 22.75 5.4375 22.75 3.9375 21.0625 C3.9375 20.0725 3.9375 19.0825 3.9375 18.0625 C2.65875 18.165625 1.38 18.26875 0.0625 18.375 C-0.65679687 18.43300781 -1.37609375 18.49101563 -2.1171875 18.55078125 C-4.45769216 18.93643036 -4.45769216 18.93643036 -6.0625 22.0625 C-8.1875 22.75 -8.1875 22.75 -10.0625 23.0625 C-11.18664875 19.74845714 -10.95970238 17.99290889 -9.6640625 14.76953125 C-9.34953125 13.97482422 -9.035 13.18011719 -8.7109375 12.36132812 C-8.37320313 11.54083984 -8.03546875 10.72035156 -7.6875 9.875 C-7.1925 8.62686523 -7.1925 8.62686523 -6.6875 7.35351562 C-3.76975076 0.07693369 -3.76975076 0.07693369 0 0 Z M-1.0625 8.0625 C-1.3925 9.7125 -1.7225 11.3625 -2.0625 13.0625 C-0.7425 12.7325 0.5775 12.4025 1.9375 12.0625 C0.9475 10.7425 -0.0425 9.4225 -1.0625 8.0625 Z " fill="#243646" transform="translate(77.0625,29.9375)"/>
<path d="M0 0 C-0.55012868 5.43284978 -1.54553532 10.37566936 -3.28515625 15.5625 C-3.50570175 16.23925781 -3.72624725 16.91601562 -3.95347595 17.61328125 C-4.649708 19.74448113 -5.35589537 21.87221961 -6.0625 24 C-6.54037997 25.45681281 -7.0175995 26.91384244 -7.49414062 28.37109375 C-8.65514695 31.91659774 -9.82509664 35.45907339 -11 39 C-11.66 39 -12.32 39 -13 39 C-13.19925276 32.77888595 -12.97388176 27.92164529 -11 22 C-10.22086415 15.01713805 -10.22086415 15.01713805 -12.51953125 8.6640625 C-13.00808594 8.11492188 -13.49664062 7.56578125 -14 7 C-7 -1.94444444 -7 -1.94444444 0 0 Z " fill="#D1D2D3" transform="translate(29,5)"/>
<path d="M0 0 C1.65 0 3.3 0 5 0 C5.33 7.26 5.66 14.52 6 22 C-5.2 23.4 -5.2 23.4 -10 21 C-11.52956232 16.41131305 -11.94283494 11.93529277 -9.8125 7.5625 C-7.55033688 5.61235938 -5.95662966 5.22743305 -3 5 C-2.34 5.33 -1.68 5.66 -1 6 C-0.67 4.02 -0.34 2.04 0 0 Z M-5 10 C-5.33 12.31 -5.66 14.62 -6 17 C-3.525 17.495 -3.525 17.495 -1 18 C0.01540112 13.89776415 0.01540112 13.89776415 -1 10 C-2.32 10 -3.64 10 -5 10 Z " fill="#243949" transform="translate(187,30)"/>
<path d="M0 0 C0.66 0 1.32 0 2 0 C4.34404948 2.89598647 6.25278217 6.10825779 8.25 9.25 C8.83007812 10.12269531 9.41015625 10.99539062 10.0078125 11.89453125 C10.54664063 12.73886719 11.08546875 13.58320312 11.640625 14.453125 C12.14110352 15.22817383 12.64158203 16.00322266 13.15722656 16.80175781 C14 19 14 19 13.25537109 21.17773438 C11.83206912 23.24376431 10.31814522 24.66669649 8.375 26.25 C7.74335937 26.77078125 7.11171875 27.2915625 6.4609375 27.828125 C5.97882812 28.21484375 5.49671875 28.6015625 5 29 C6 24 7 19 8 14 C7.01 14.495 7.01 14.495 6 15 C6 15.99 6 16.98 6 18 C5.34 18 4.68 18 4 18 C4 16.68 4 15.36 4 14 C3.01 14 2.02 14 1 14 C0.67 15.32 0.34 16.64 0 18 C-0.66 18 -1.32 18 -2 18 C-2 17.01 -2 16.02 -2 15 C-2.66 14.67 -3.32 14.34 -4 14 C-2.68 9.38 -1.36 4.76 0 0 Z " fill="#939596" transform="translate(38,46)"/>
<path d="M0 0 C0.66 0 1.32 0 2 0 C2 4.29 2 8.58 2 13 C-3.29230769 16.07692308 -3.29230769 16.07692308 -6.875 15.6875 C-7.57625 15.460625 -8.2775 15.23375 -9 15 C-9 13.68 -9 12.36 -9 11 C-9.66 10.67 -10.32 10.34 -11 10 C-11 10.66 -11 11.32 -11 12 C-11.66 12 -12.32 12 -13 12 C-13.33 12.66 -13.66 13.32 -14 14 C-16.5 12.875 -16.5 12.875 -19 11 C-19.4375 7.9375 -19.4375 7.9375 -19 5 C-17 3 -17 3 -14.625 2.875 C-13.75875 2.91625 -12.8925 2.9575 -12 3 C-10.68 3 -9.36 3 -8 3 C-5.66666667 3 -3.33333333 3 -1 3 C-0.67 2.01 -0.34 1.02 0 0 Z M-15 5 C-15.33 6.65 -15.66 8.3 -16 10 C-15.01 10 -14.02 10 -13 10 C-13.33 8.35 -13.66 6.7 -14 5 C-14.33 5 -14.66 5 -15 5 Z M-6 5 C-6.33 6.65 -6.66 8.3 -7 10 C-6.01 10 -5.02 10 -4 10 C-4.33 8.35 -4.66 6.7 -5 5 C-5.33 5 -5.66 5 -6 5 Z " fill="#2B2B2B" transform="translate(273,63)"/>
<path d="M0 0 C0.66 0 1.32 0 2 0 C2.66 1.32 3.32 2.64 4 4 C4.33 3.67 4.66 3.34 5 3 C6.99958364 2.95919217 9.00045254 2.95745644 11 3 C12.60725635 6.21451269 12.05748185 9.43612536 12 13 C7.85266897 13.08132022 4.02554164 13.06558455 0 12 C-0.33 11.67 -0.66 11.34 -1 11 C-1.33 11.66 -1.66 12.32 -2 13 C-2.99 12.67 -3.98 12.34 -5 12 C-6.125 7.25 -6.125 7.25 -5 5 C-5.66 5 -6.32 5 -7 5 C-7 7.31 -7 9.62 -7 12 C-7.99 12.33 -8.98 12.66 -10 13 C-10 9.7 -10 6.4 -10 3 C-7.98177083 3.09765625 -5.96354167 3.1953125 -3.9453125 3.29296875 C-3.30335938 3.19628906 -2.66140625 3.09960938 -2 3 C-1.34 2.01 -0.68 1.02 0 0 Z M2 5 C2 6.65 2 8.3 2 10 C2.66 9.01 3.32 8.02 4 7 C3.34 6.34 2.68 5.68 2 5 Z M6 5 C5.67 5.66 5.34 6.32 5 7 C6.32 6.34 7.64 5.68 9 5 C8.01 5 7.02 5 6 5 Z " fill="#303030" transform="translate(139,63)"/>
<path d="M0 0 C2 1 2 1 2.88671875 3.328125 C3.15097656 4.29234375 3.41523438 5.2565625 3.6875 6.25 C3.95949219 7.20390625 4.23148438 8.1578125 4.51171875 9.140625 C5.03128467 12.18320303 4.99045911 14.0839275 4 17 C3.01 17.66 2.02 18.32 1 19 C1 17.35 1 15.7 1 14 C0.6596875 14.9590625 0.6596875 14.9590625 0.3125 15.9375 C-0.3371875 16.9584375 -0.3371875 16.9584375 -1 18 C-2.66321482 18.35015049 -4.33034549 18.68197057 -6 19 C-8.29289472 20.95809523 -8.29289472 20.95809523 -10 23 C-11.26171875 21.43359375 -11.26171875 21.43359375 -12 19 C-10.71167828 16.46861376 -9.43700343 14.36004658 -7.8125 12.0625 C-6.98517647 10.84539222 -6.15834448 9.62795016 -5.33203125 8.41015625 C-4.73382568 7.54414795 -4.73382568 7.54414795 -4.12353516 6.66064453 C-2.65726763 4.49342339 -1.31681813 2.2604663 0 0 Z " fill="#CFCECD" transform="translate(25,46)"/>
<path d="M0 0 C3.96 0 7.92 0 12 0 C12.33 0.66 12.66 1.32 13 2 C13.66 1.34 14.32 0.68 15 0 C17.5 -0.25 17.5 -0.25 20 0 C22 2 22 2 22.3125 5 C22.209375 5.99 22.10625 6.98 22 8 C19 10 19 10 16.875 9.6875 C15 9 15 9 14 8 C13.67 8.66 13.34 9.32 13 10 C12.01 9.67 11.02 9.34 10 9 C10 6.69 10 4.38 10 2 C9.34 2 8.68 2 8 2 C8 4.31 8 6.62 8 9 C7.01 9 6.02 9 5 9 C5 6.69 5 4.38 5 2 C4.34 2 3.68 2 3 2 C3 4.31 3 6.62 3 9 C2.01 9 1.02 9 0 9 C0 6.03 0 3.06 0 0 Z " fill="#2E2F2E" transform="translate(106,66)"/>
<path d="M0 0 C1.65 0 3.3 0 5 0 C5 5.94 5 11.88 5 18 C8.63 18 12.26 18 16 18 C16.33 18.99 16.66 19.98 17 21 C15.06794101 22.93205899 11.64398339 22.44154433 9.0625 22.625 C7.79535156 22.72039063 6.52820313 22.81578125 5.22265625 22.9140625 C2 23 2 23 0 22 C0 14.74 0 7.48 0 0 Z " fill="#283B4A" transform="translate(149,30)"/>
<path d="M0 0 C0.66 0 1.32 0 2 0 C3.10228696 4.40914783 3.07654536 8.48382401 3 13 C2.278125 12.814375 1.55625 12.62875 0.8125 12.4375 C-2.14838426 11.976918 -4.10138695 12.38976567 -7 13 C-7.99 12.67 -8.98 12.34 -10 12 C-10.99 12.33 -11.98 12.66 -13 13 C-13 10.36 -13 7.72 -13 5 C-13.99 5.495 -13.99 5.495 -15 6 C-15.40729228 8.32156597 -15.74438677 10.6568787 -16 13 C-16.66 13 -17.32 13 -18 13 C-18 9.7 -18 6.4 -18 3 C-15.69 3 -13.38 3 -11 3 C-11 3.66 -11 4.32 -11 5 C-10.01 4.34 -9.02 3.68 -8 3 C-6.4840625 3.0309375 -6.4840625 3.0309375 -4.9375 3.0625 C-3.968125 3.041875 -2.99875 3.02125 -2 3 C-1.34 2.01 -0.68 1.02 0 0 Z M-10 6 C-10 6.99 -10 7.98 -10 9 C-9.01 8.67 -8.02 8.34 -7 8 C-7.66 8 -8.32 8 -9 8 C-9.33 7.34 -9.66 6.68 -10 6 Z " fill="#333433" transform="translate(88,63)"/>
<path d="M0 0 C0 1.65 0 3.3 0 5 C0.99 5 1.98 5 3 5 C3 6.32 3 7.64 3 9 C2.01 9 1.02 9 0 9 C0 11.64 0 14.28 0 17 C1.32 17.33 2.64 17.66 4 18 C3.34 19.32 2.68 20.64 2 22 C-0.875 21.6875 -0.875 21.6875 -4 21 C-6.23551759 17.64672361 -6.17283528 17.09256343 -5.625 13.3125 C-5.51414063 12.50425781 -5.40328125 11.69601563 -5.2890625 10.86328125 C-5.19367188 10.24839844 -5.09828125 9.63351563 -5 9 C-5.66 9 -6.32 9 -7 9 C-7 7.68 -7 6.36 -7 5 C-6.34 5 -5.68 5 -5 5 C-4.87625 4.360625 -4.7525 3.72125 -4.625 3.0625 C-4.41875 2.381875 -4.2125 1.70125 -4 1 C-2 0 -2 0 0 0 Z " fill="#2A3D4A" transform="translate(172,31)"/>
<path d="M0 0 C2.5 0.1875 2.5 0.1875 4.5 1.1875 C6.8400417 0.90508117 9.17504723 0.57499213 11.5 0.1875 C12.34454356 3.56567425 12.60844919 5.86215243 11.5 9.1875 C9.25522671 9.90903427 7.87508163 10.28429526 5.5625 9.6875 C3.42053781 9.00864612 3.42053781 9.00864612 0.9375 9.75 C-1.5 10.1875 -1.5 10.1875 -4.5 8.1875 C-4.8125 5.1875 -4.8125 5.1875 -4.5 2.1875 C-2.5 0.1875 -2.5 0.1875 0 0 Z M4.5 4.1875 C4.5 4.8475 4.5 5.5075 4.5 6.1875 C5.16 5.8575 5.82 5.5275 6.5 5.1875 C5.84 4.8575 5.18 4.5275 4.5 4.1875 Z " fill="#2D2D2E" transform="translate(280.5,65.8125)"/>
<path d="M0 0 C6.90119691 2.31238021 10.97692098 7.50281818 14.5546875 13.6875 C20.44275679 25.95140764 21.77349166 38.87571307 18 52 C16.80357463 55.07326059 15.46889123 58.04795646 14 61 C13.34 60.67 12.68 60.34 12 60 C12.45375 59.030625 12.9075 58.06125 13.375 57.0625 C18.67073471 44.53846388 17.81650061 31.8787889 14 19 C11.2488557 12.42939765 7.47645745 7.53687436 1.6875 3.3125 C1.130625 2.879375 0.57375 2.44625 0 2 C0 1.34 0 0.68 0 0 Z " fill="#414953" transform="translate(41,3)"/>
<path d="M0 0 C0.99 0 1.98 0 3 0 C3 0.99 3 1.98 3 3 C3.804375 3.12375 4.60875 3.2475 5.4375 3.375 C6.7059375 3.684375 6.7059375 3.684375 8 4 C9.35439668 6.70879335 9.06501451 9.00933268 9 12 C8.01 12.33 7.02 12.66 6 13 C5.67 10.69 5.34 8.38 5 6 C4.67 6 4.34 6 4 6 C3.67 8.31 3.34 10.62 3 13 C2.4225 12.814375 1.845 12.62875 1.25 12.4375 C-0.98119199 11.83147523 -0.98119199 11.83147523 -3.0625 12.5625 C-4.0215625 12.7790625 -4.0215625 12.7790625 -5 13 C-5.99 12.34 -6.98 11.68 -8 11 C-8.3125 8 -8.3125 8 -8 5 C-6 3 -6 3 -3.375 2.875 C-2.59125 2.91625 -1.8075 2.9575 -1 3 C-0.67 2.01 -0.34 1.02 0 0 Z M-5 5 C-5 6.65 -5 8.3 -5 10 C-3.35 9.34 -1.7 8.68 0 8 C-1.37485532 6.45833358 -1.37485532 6.45833358 -3 5 C-3.66 5 -4.32 5 -5 5 Z " fill="#343431" transform="translate(223,63)"/>
<path d="M0 0 C0.66 0 1.32 0 2 0 C1.79503906 0.66386719 1.59007812 1.32773437 1.37890625 2.01171875 C0.97478516 3.33623047 0.97478516 3.33623047 0.5625 4.6875 C0.29566406 5.55761719 0.02882813 6.42773438 -0.24609375 7.32421875 C-3.53537056 18.99859498 -3.51051251 32.97897498 2 44 C3.32 40.7 4.64 37.4 6 34 C8 37 8 37 7.6875 38.875 C7.460625 39.57625 7.23375 40.2775 7 41 C6.855625 41.86625 6.71125 42.7325 6.5625 43.625 C6 46 6 46 4 48 C1.0862559 46.96766719 0.16146935 46.32755212 -1.23046875 43.50390625 C-1.54628906 42.53324219 -1.86210938 41.56257813 -2.1875 40.5625 C-2.51105469 39.59441406 -2.83460937 38.62632813 -3.16796875 37.62890625 C-3.57982422 36.32759766 -3.57982422 36.32759766 -4 35 C-4.495 33.515 -4.495 33.515 -5 32 C-5.91806077 20.30128276 -4.41841245 10.84089056 0 0 Z " fill="#49565F" transform="translate(9,17)"/>
<path d="M0 0 C2.875 -0.125 2.875 -0.125 6 0 C6.66 0.66 7.32 1.32 8 2 C8.66 1.34 9.32 0.68 10 0 C12.5 -0.25 12.5 -0.25 15 0 C17 2 17 2 17.3125 5 C17.209375 5.99 17.10625 6.98 17 8 C13.79619983 10.13586678 12.98060033 10.23132175 9.3125 10.125 C8.50425781 10.10695313 7.69601563 10.08890625 6.86328125 10.0703125 C5.94095703 10.03550781 5.94095703 10.03550781 5 10 C5 7.36 5 4.72 5 2 C4.01 2.495 4.01 2.495 3 3 C2.59270772 5.32156597 2.25561323 7.6568787 2 10 C1.34 10 0.68 10 0 10 C0 6.7 0 3.4 0 0 Z M12 2 C11.67 3.65 11.34 5.3 11 7 C11.99 7 12.98 7 14 7 C14 5.35 14 3.7 14 2 C13.34 2 12.68 2 12 2 Z M7 4 C8 6 8 6 8 6 Z M8 7 C9 9 9 9 9 9 Z " fill="#2A2A2A" transform="translate(233,66)"/>
<path d="M0 0 C1.65 0 3.3 0 5 0 C5 7.26 5 14.52 5 22 C4.34 22.33 3.68 22.66 3 23 C1.68 22.34 0.36 21.68 -1 21 C-0.67 14.07 -0.34 7.14 0 0 Z " fill="#293641" transform="translate(132,30)"/>
<path d="M0 0 C1.8542837 0 3.70850159 -0.02997371 5.5625 -0.0625 C9 0 9 0 10 1 C10.07179964 2.51928038 10.08392007 4.04167482 10.0625 5.5625 C10.05347656 6.38878906 10.04445312 7.21507813 10.03515625 8.06640625 C10.02355469 8.70449219 10.01195312 9.34257813 10 10 C9.34 10 8.68 10 8 10 C7.67 7.69 7.34 5.38 7 3 C5.84607545 5.3078491 5.46562834 7.47230331 5 10 C4.443125 9.62875 3.88625 9.2575 3.3125 8.875 C0.20544631 7.69935806 -1.01608792 8.77583094 -4 10 C-4.99 9.34 -5.98 8.68 -7 8 C-7.1875 4.375 -7.1875 4.375 -7 1 C-4.5208901 -0.23955495 -2.7458063 -0.06864516 0 0 Z M-4 2 C-4.33 3.32 -4.66 4.64 -5 6 C-3.68 6.33 -2.36 6.66 -1 7 C-1.33 5.35 -1.66 3.7 -2 2 C-2.66 2 -3.32 2 -4 2 Z " fill="#333333" transform="translate(167,66)"/>
<path d="M0 0 C2.34914492 2.34914492 2.73140357 3.95679446 3.625 7.125 C3.88539062 8.03507812 4.14578125 8.94515625 4.4140625 9.8828125 C4.70410156 10.93082031 4.70410156 10.93082031 5 12 C5.66 11.01 6.32 10.02 7 9 C7.99 9 8.98 9 10 9 C9.88490339 10.41750563 9.75746342 11.83401169 9.625 13.25 C9.55539063 14.03890625 9.48578125 14.8278125 9.4140625 15.640625 C8.98492887 18.085877 8.21399362 19.84836903 7 22 C6.34 22 5.68 22 5 22 C3.35 16.39 1.7 10.78 0 5 C-2.97 9.29 -5.94 13.58 -9 18 C-9.66 17.01 -10.32 16.02 -11 15 C-10.34 15 -9.68 15 -9 15 C-8.74476562 14.28457031 -8.48953125 13.56914063 -8.2265625 12.83203125 C-6.9123112 9.79753382 -5.30503984 7.36811089 -3.375 4.6875 C-2.74335938 3.80449219 -2.11171875 2.92148437 -1.4609375 2.01171875 C-0.97882812 1.34785156 -0.49671875 0.68398438 0 0 Z " fill="#404C54" transform="translate(26,42)"/>
<path d="M0 0 C1.20575349 8.84823612 1.01255331 17.55129213 0.75805664 26.45263672 C0.68689997 29.0216632 0.6330491 31.59069764 0.58007812 34.16015625 C0.53749902 35.79429828 0.49391631 37.42841454 0.44921875 39.0625 C0.43453049 39.83013672 0.41984222 40.59777344 0.40470886 41.38867188 C0.22921 46.77079 0.22921 46.77079 -2 49 C-2.33 33.16 -2.66 17.32 -3 1 C-1 0 -1 0 0 0 Z " fill="#193040" transform="translate(34,4)"/>
<path d="M0 0 C2.475 0.99 2.475 0.99 5 2 C4.38080922 3.46080933 3.75443308 4.91857455 3.125 6.375 C2.77695313 7.18710937 2.42890625 7.99921875 2.0703125 8.8359375 C1 11 1 11 -1 13 C-1.27787668 15.42597951 -1.27787668 15.42597951 -1.1953125 18.2265625 C-1.18886719 19.2578125 -1.18242187 20.2890625 -1.17578125 21.3515625 C-1.15902344 22.43179688 -1.14226563 23.51203125 -1.125 24.625 C-1.11597656 25.71296875 -1.10695313 26.8009375 -1.09765625 27.921875 C-1.07403409 30.61480152 -1.04109556 33.30729255 -1 36 C-5.22388234 31.77611766 -4.2830143 25.03500836 -4.33007812 19.39257812 C-4.23511219 12.4474024 -2.48902765 6.48925067 0 0 Z " fill="#EBECEE" transform="translate(10,19)"/>
<path d="M0 0 C2.64 0 5.28 0 8 0 C8 2.31 8 4.62 8 7 C8.66 7 9.32 7 10 7 C10 4.69 10 2.38 10 0 C10.99 0 11.98 0 13 0 C13 3.3 13 6.6 13 10 C10.125 10.125 10.125 10.125 7 10 C4.64046906 7.64046906 4.50858587 6.22104383 4 3 C3.34 3 2.68 3 2 3 C2 5.31 2 7.62 2 10 C1.34 10 0.68 10 0 10 C-1.125 2.25 -1.125 2.25 0 0 Z " fill="#313131" transform="translate(92,66)"/>
<path d="M0 0 C0.70125 0.2475 1.4025 0.495 2.125 0.75 C1.26785714 9.32142857 1.26785714 9.32142857 -0.875 12.75 C-1.205 12.09 -1.535 11.43 -1.875 10.75 C-3.525 11.08 -5.175 11.41 -6.875 11.75 C-6.648125 10.986875 -6.42125 10.22375 -6.1875 9.4375 C-6.084375 8.550625 -5.98125 7.66375 -5.875 6.75 C-7.20878575 4.9145201 -7.20878575 4.9145201 -8.875 3.75 C-3.58269231 -0.31153846 -3.58269231 -0.31153846 0 0 Z " fill="#CACBCC" transform="translate(26.875,4.25)"/>
<path d="M0 0 C3.76720512 1.25573504 3.97816915 2.80169964 5.76171875 6.1484375 C8.44049556 10.15392712 12.50882832 12.50294277 17 14 C24.84210246 14.88682903 29.81714276 13.8880942 36 9 C36.825 8.401875 37.65 7.80375 38.5 7.1875 C38.995 6.795625 39.49 6.40375 40 6 C39.64996937 8.83094947 39.23218382 9.80598338 37.00390625 11.66796875 C35.79541016 12.42013672 35.79541016 12.42013672 34.5625 13.1875 C33.35787109 13.95126953 33.35787109 13.95126953 32.12890625 14.73046875 C27.16962358 17.68783915 22.70014685 17.64928825 17 17 C10.18583199 14.70357172 4.96185075 9.9309849 1 4 C0.3125 1.75390625 0.3125 1.75390625 0 0 Z " fill="#3C454C" transform="translate(10,63)"/>
<path d="M0 0 C3 0.25 3 0.25 5 2.25 C5.25 5.25 5.25 5.25 5 8.25 C3 10.25 3 10.25 0 10.5 C-3 10.25 -3 10.25 -5 8.25 C-5.25 5.25 -5.25 5.25 -5 2.25 C-3 0.25 -3 0.25 0 0 Z " fill="#D4752C" transform="translate(92,22.75)"/>
<path d="M0 0 C1.65 0 3.3 0 5 0 C5.33 5.28 5.66 10.56 6 16 C2 17 2 17 0 16 C0 10.72 0 5.44 0 0 Z " fill="#2A3B48" transform="translate(89,36)"/>
<path d="M0 0 C1.65 0 3.3 0 5 0 C6.125 3.75 6.125 3.75 5 6 C5.66 6 6.32 6 7 6 C7.33 7.98 7.66 9.96 8 12 C4.69978999 12.8250525 2.17546695 13.42348518 -1 12 C-2.375 10.1875 -2.375 10.1875 -3 8 C-2.1875 6 -2.1875 6 -1 4 C-0.63215869 2.6757713 -0.28797019 1.34386088 0 0 Z M2 2 C3 4 3 4 3 4 Z M1 7 C0.67 7.99 0.34 8.98 0 10 C0.99 10 1.98 10 3 10 C2.67 9.01 2.34 8.02 2 7 C1.67 7 1.34 7 1 7 Z " fill="#323231" transform="translate(185,63)"/>
<path d="M0 0 C0.66 0 1.32 0 2 0 C4.01696222 3.02544334 4.25811096 3.61067382 4.1875 7 C4.17783203 8.0209375 4.17783203 8.0209375 4.16796875 9.0625 C4 11 4 11 3 14 C2.34 14 1.68 14 1 14 C0.67 15.32 0.34 16.64 0 18 C-0.66 18 -1.32 18 -2 18 C-2 17.01 -2 16.02 -2 15 C-2.66 14.67 -3.32 14.34 -4 14 C-2.68 9.38 -1.36 4.76 0 0 Z " fill="#A4A3A3" transform="translate(38,46)"/>
<path d="M0 0 C1.98 0 3.96 0 6 0 C6 4.29 6 8.58 6 13 C3.69 12.67 1.38 12.34 -1 12 C-1.2226746 10.56465159 -1.42761906 9.12654475 -1.625 7.6875 C-1.74101562 6.88699219 -1.85703125 6.08648437 -1.9765625 5.26171875 C-2 3 -2 3 0 0 Z M2 5 C2 6.65 2 8.3 2 10 C2.33 10 2.66 10 3 10 C3 8.35 3 6.7 3 5 C2.67 5 2.34 5 2 5 Z " fill="#30302E" transform="translate(153,63)"/>
<path d="M0 0 C1.65 0 3.3 0 5 0 C5 5.28 5 10.56 5 16 C3.35 16 1.7 16 0 16 C0 10.72 0 5.44 0 0 Z " fill="#283B48" transform="translate(124,36)"/>
<path d="M0 0 C2.4375 0.1875 2.4375 0.1875 3.4375 1.1875 C3.91073944 7.57623239 3.91073944 7.57623239 1.9375 10.125 C1.4425 10.475625 0.9475 10.82625 0.4375 11.1875 C-2.0625 10.0625 -2.0625 10.0625 -4.5625 8.1875 C-5 5.125 -5 5.125 -4.5625 2.1875 C-2.5625 0.1875 -2.5625 0.1875 0 0 Z " fill="#2D2D2E" transform="translate(210.5625,65.8125)"/>
<path d="M0 0 C0.66 0 1.32 0 2 0 C2 4.29 2 8.58 2 13 C-3.29230769 16.07692308 -3.29230769 16.07692308 -6.875 15.6875 C-7.57625 15.460625 -8.2775 15.23375 -9 15 C-9.33 14.01 -9.66 13.02 -10 12 C-8.66666667 11.66666667 -7.33333333 11.33333333 -6 11 C-4.948125 10.7215625 -4.948125 10.7215625 -3.875 10.4375 C-2 10 -2 10 0 10 C-0.08378906 9.36191406 -0.16757812 8.72382812 -0.25390625 8.06640625 C-0.35574219 7.24011719 -0.45757812 6.41382812 -0.5625 5.5625 C-0.66691406 4.73878906 -0.77132813 3.91507812 -0.87890625 3.06640625 C-0.91886719 2.38449219 -0.95882813 1.70257813 -1 1 C-0.67 0.67 -0.34 0.34 0 0 Z " fill="#232323" transform="translate(273,63)"/>
<path d="M0 0 C0.84454356 3.37817425 1.10844919 5.67465243 0 9 C-1.32 9.33 -2.64 9.66 -4 10 C-4.268125 9.195625 -4.53625 8.39125 -4.8125 7.5625 C-5.204375 6.716875 -5.59625 5.87125 -6 5 C-6.99 4.67 -7.98 4.34 -9 4 C-6.94469992 -0.11060016 -4.15744224 -0.22472661 0 0 Z " fill="#353536" transform="translate(292,66)"/>
<path d="M0 0 C0.99 0.33 1.98 0.66 3 1 C3 2.32 3 3.64 3 5 C5.49552484 4.21869929 5.49552484 4.21869929 8 3 C8.33 2.01 8.66 1.02 9 0 C9.66 0.33 10.32 0.66 11 1 C11 3.31 11 5.62 11 8 C10.4225 7.814375 9.845 7.62875 9.25 7.4375 C7.01880801 6.83147523 7.01880801 6.83147523 4.9375 7.5625 C3.9784375 7.7790625 3.9784375 7.7790625 3 8 C2.01 7.34 1.02 6.68 0 6 C-0.1875 2.875 -0.1875 2.875 0 0 Z " fill="#2C2C2D" transform="translate(215,68)"/>
<path d="M0 0 C3.63 0 7.26 0 11 0 C11 0.66 11 1.32 11 2 C10.34 2 9.68 2 9 2 C7.85185003 4.29629994 7.69230191 6.07698086 7.4375 8.625 C7.35371094 9.44226563 7.26992187 10.25953125 7.18359375 11.1015625 C7.12300781 11.72804688 7.06242188 12.35453125 7 13 C6.01 13 5.02 13 4 13 C4 9.37 4 5.74 4 2 C2.68 2 1.36 2 0 2 C0 1.34 0 0.68 0 0 Z " fill="#353634" transform="translate(197,63)"/>
<path d="M0 0 C-0.11509661 1.41750563 -0.24253658 2.83401169 -0.375 4.25 C-0.44460937 5.03890625 -0.51421875 5.8278125 -0.5859375 6.640625 C-1.01507113 9.085877 -1.78600638 10.84836903 -3 13 C-3.66 13 -4.32 13 -5 13 C-5.2493357 11.39884424 -5.47378648 9.79379841 -5.6875 8.1875 C-5.81511719 7.29417969 -5.94273438 6.40085937 -6.07421875 5.48046875 C-6 3 -6 3 -4.70703125 1.17578125 C-3 0 -3 0 0 0 Z " fill="#324451" transform="translate(36,51)"/>
<path d="M0 0 C0.99 0 1.98 0 3 0 C3.08074203 2.62561109 3.1403623 5.24875676 3.1875 7.875 C3.22520508 8.99455078 3.22520508 8.99455078 3.26367188 10.13671875 C3.29296875 12.3046875 3.29296875 12.3046875 3 16 C2.01 16.66 1.02 17.32 0 18 C0 12.06 0 6.12 0 0 Z " fill="#243C4E" transform="translate(133,32)"/>
<path d="M0 0 C0.66 0.33 1.32 0.66 2 1 C3.81278094 6.57778749 2.05075703 10.78621095 0 16 C-0.66 16 -1.32 16 -2 16 C-2.05449838 14.27119018 -2.09301688 12.54187288 -2.125 10.8125 C-2.14820313 9.84957031 -2.17140625 8.88664062 -2.1953125 7.89453125 C-1.9913544 4.87187222 -1.26874632 2.73230015 0 0 Z " fill="#D5D8DA" transform="translate(18,28)"/>
<path d="M0 0 C0.66 0.99 1.32 1.98 2 3 C0.55746343 6.36591866 -1.33264727 8.51047079 -4 11 C-4.66 9.68 -5.32 8.36 -6 7 C-2.25 1.125 -2.25 1.125 0 0 Z " fill="#DADDE1" transform="translate(19,58)"/>
<path d="M0 0 C1.32 0.33 2.64 0.66 4 1 C3.34 1 2.68 1 2 1 C2 1.66 2 2.32 2 3 C1.34 3 0.68 3 0 3 C0.20625 4.0725 0.4125 5.145 0.625 6.25 C0.9876191 9.87619096 0.98362069 11.08291076 -1 14 C-3 12 -3 12 -3.3125 8.125 C-3.24088781 4.54439038 -2.60208598 2.60208598 0 0 Z " fill="#283D4D" transform="translate(179,36)"/>
<path d="M0 0 C1.670625 0.061875 1.670625 0.061875 3.375 0.125 C3.375 2.435 3.375 4.745 3.375 7.125 C2.385 7.455 1.395 7.785 0.375 8.125 C0.045 6.475 -0.285 4.825 -0.625 3.125 C-1.945 4.115 -3.265 5.105 -4.625 6.125 C-5.25 4.25 -5.25 4.25 -5.625 2.125 C-3.625 0.125 -3.625 0.125 0 0 Z " fill="#363532" transform="translate(268.625,65.875)"/>
<path d="M0 0 C6.75 0.875 6.75 0.875 9 2 C9 2.66 9 3.32 9 4 C8.360625 4.226875 7.72125 4.45375 7.0625 4.6875 C4.72806339 5.85250896 4.72806339 5.85250896 4.25 8.625 C4.1675 9.40875 4.085 10.1925 4 11 C1.54176828 7.31265242 0.98757384 4.30300029 0 0 Z " fill="#9FA4A8" transform="translate(34,3)"/>
<path d="M0 0 C3.2542015 2.83430453 4.5206753 4.68607774 5 9 C4.01 9.33 3.02 9.66 2 10 C2 10.99 2 11.98 2 13 C1.34 13 0.68 13 0 13 C-0.83796731 8.34462607 -1.0161692 4.62921525 0 0 Z " fill="#97999C" transform="translate(42,51)"/>
<path d="M0 0 C0.66 0.33 1.32 0.66 2 1 C2.62669199 3.16467461 3.15427374 5.35864524 3.625 7.5625 C3.88539062 8.76003906 4.14578125 9.95757812 4.4140625 11.19140625 C4.60742188 12.11824219 4.80078125 13.04507813 5 14 C3.5 12.75 3.5 12.75 2 11 C2 9.68 2 8.36 2 7 C-0.31 7.66 -2.62 8.32 -5 9 C-3.35 6.03 -1.7 3.06 0 0 Z " fill="#A9B1B7" transform="translate(25,46)"/>
<path d="M0 0 C0.99 0 1.98 0 3 0 C3 4.29 3 8.58 3 13 C2.01 12.67 1.02 12.34 0 12 C0 8.04 0 4.08 0 0 Z " fill="#343434" transform="translate(65,63)"/>
<path d="M0 0 C0.66 0 1.32 0 2 0 C3.31626692 3.61973402 4 6.09567131 4 10 C3.01 10.66 2.02 11.32 1 12 C1 10.35 1 8.7 1 7 C0.34 7.99 -0.32 8.98 -1 10 C-1.02689216 8.52093108 -1.04634621 7.04172517 -1.0625 5.5625 C-1.07410156 4.73878906 -1.08570312 3.91507813 -1.09765625 3.06640625 C-1 1 -1 1 0 0 Z " fill="#C5C6C7" transform="translate(25,53)"/>
<path d="M0 0 C2 3 2 3 1.6875 4.875 C1.460625 5.57625 1.23375 6.2775 1 7 C0.7834375 8.299375 0.7834375 8.299375 0.5625 9.625 C0 12 0 12 -2 14 C-2.99 13.34 -3.98 12.68 -5 12 C-4.67 11.34 -4.34 10.68 -4 10 C-3.30406027 8.29508741 -2.61762521 6.58628277 -1.9375 4.875 C-1.57527344 3.96492188 -1.21304687 3.05484375 -0.83984375 2.1171875 C-0.42412109 1.06917969 -0.42412109 1.06917969 0 0 Z " fill="#727C85" transform="translate(15,51)"/>
<path d="M0 0 C2.64 0 5.28 0 8 0 C7.67 0.66 7.34 1.32 7 2 C4.4375 2.625 4.4375 2.625 2 3 C2 5.31 2 7.62 2 10 C1.34 10 0.68 10 0 10 C-1.125 2.25 -1.125 2.25 0 0 Z " fill="#272827" transform="translate(92,66)"/>
<path d="M0 0 C1 2 2 4 3 6 C2.34 6 1.68 6 1 6 C0.67 7.32 0.34 8.64 0 10 C-0.66 10 -1.32 10 -2 10 C-2 9.01 -2 8.02 -2 7 C-2.66 6.67 -3.32 6.34 -4 6 C-2.25 1.125 -2.25 1.125 0 0 Z " fill="#AAA9A9" transform="translate(38,54)"/>
<path d="M0 0 C2.74415095 2.26118038 3.89410286 3.47594492 4.609375 7.015625 C4.65578125 8.08296875 4.7021875 9.1503125 4.75 10.25 C4.80671875 11.32765625 4.8634375 12.4053125 4.921875 13.515625 C4.94765625 14.33546875 4.9734375 15.1553125 5 16 C1.37825721 12.37825721 0.12043782 6.96715106 -0.1875 1.9375 C-0.125625 1.298125 -0.06375 0.65875 0 0 Z " fill="#93979A" transform="translate(43,28)"/>
<path d="M0 0 C2.64 0.33 5.28 0.66 8 1 C8.33 2.65 8.66 4.3 9 6 C7.1875 6.6875 7.1875 6.6875 5 7 C3.25 5.75 3.25 5.75 2 4 C2 3.01 2 2.02 2 1 C1.34 0.67 0.68 0.34 0 0 Z " fill="#25323B" transform="translate(79,47)"/>
<path d="M0 0 C1.98 0 3.96 0 6 0 C6.33 1.32 6.66 2.64 7 4 C5.68 3.67 4.36 3.34 3 3 C2.67 5.31 2.34 7.62 2 10 C1.34 10 0.68 10 0 10 C0 6.7 0 3.4 0 0 Z " fill="#363634" transform="translate(233,66)"/>
<path d="M0 0 C1.5 1.1875 1.5 1.1875 3 3 C3.1875 5.6875 3.1875 5.6875 3 8 C2.01 8.495 2.01 8.495 1 9 C1 8.01 1 7.02 1 6 C-0.32 6 -1.64 6 -3 6 C-2.625 3.5625 -2.625 3.5625 -2 1 C-1.34 0.67 -0.68 0.34 0 0 Z " fill="#243E50" transform="translate(77,31)"/>
<path d="M0 0 C1.5 1.3125 1.5 1.3125 3 3 C3 3.99 3 4.98 3 6 C3.66 6.33 4.32 6.66 5 7 C3.02 9.97 3.02 9.97 1 13 C0 10 0 10 1 7 C-0.37492804 3.8331162 -0.37492804 3.8331162 -2 1 C-1.34 0.67 -0.68 0.34 0 0 Z " fill="#313C45" transform="translate(50,58)"/>
<path d="M0 0 C-3 1 -3 1 -6.5625 1.3125 C-10.07678999 1.60284541 -10.07678999 1.60284541 -11.4375 4.0625 C-11.623125 4.701875 -11.80875 5.34125 -12 6 C-12.185625 5.071875 -12.185625 5.071875 -12.375 4.125 C-12.87197356 1.80879168 -12.87197356 1.80879168 -15 0 C-9.38963576 -1.62077189 -5.53754923 -2.55579195 0 0 Z " fill="#525D67" transform="translate(41,3)"/>
<path d="M0 0 C1.65 0 3.3 0 5 0 C5 1.65 5 3.3 5 5 C4.01 5.495 4.01 5.495 3 6 C0.875 5.0625 0.875 5.0625 -1 4 C-0.67 2.68 -0.34 1.36 0 0 Z " fill="#313D44" transform="translate(195,47)"/>
<path d="M0 0 C-0.33 0.66 -0.66 1.32 -1 2 C-1.66 2 -2.32 2 -3 2 C-3 3.98 -3 5.96 -3 8 C-3.33 6.68 -3.66 5.36 -4 4 C-5.65 3.67 -7.3 3.34 -9 3 C-6.27596221 -1.08605669 -4.4643819 -1.38549783 0 0 Z " fill="#22323E" transform="translate(110,36)"/>
<path d="M0 0 C0.66 0 1.32 0 2 0 C2 4.29 2 8.58 2 13 C1.34 13 0.68 13 0 13 C0 8.71 0 4.42 0 0 Z " fill="#393937" transform="translate(251,63)"/>
<path d="M0 0 C0.33 0.99 0.66 1.98 1 3 C2.49985609 4.66710346 2.49985609 4.66710346 4 6 C0.30581799 7.231394 -2.2056261 6.64432764 -6 6 C-5.34 5.67 -4.68 5.34 -4 5 C-3.67 4.34 -3.34 3.68 -3 3 C-3 3.66 -3 4.32 -3 5 C-2.34 5 -1.68 5 -1 5 C-1.33 4.01 -1.66 3.02 -2 2 C-1.34 1.34 -0.68 0.68 0 0 Z " fill="#274052" transform="translate(81,41)"/>
<path d="M0 0 C0.99 0.33 1.98 0.66 3 1 C2.67 2.65 2.34 4.3 2 6 C1.01 6 0.02 6 -1 6 C-1.66 6.99 -2.32 7.98 -3 9 C-2.4140625 2.84765625 -2.4140625 2.84765625 -2 1 C-1.34 0.67 -0.68 0.34 0 0 Z " fill="#20323F" transform="translate(114,35)"/>
<path d="M0 0 C2.79872437 2.52788007 4.45773019 4.20411134 5 8 C3.68 8 2.36 8 1 8 C0.855625 7.401875 0.71125 6.80375 0.5625 6.1875 C0.1127561 4.43849596 -0.42892341 2.71322977 -1 1 C-0.67 0.67 -0.34 0.34 0 0 Z " fill="#868C90" transform="translate(47,59)"/>
<path d="M0 0 C-0.33 0.99 -0.66 1.98 -1 3 C-6.75 4.125 -6.75 4.125 -9 3 C-7.04184491 -0.91631018 -3.95131158 -0.08589808 0 0 Z " fill="#364751" transform="translate(188,49)"/>
<path d="M0 0 C0.33 0 0.66 0 1 0 C1 3.63 1 7.26 1 11 C0.01 11.495 0.01 11.495 -1 12 C-1.92470553 7.28400182 -2.22923777 4.32734391 0 0 Z " fill="#72777A" transform="translate(58,36)"/>
<path d="M0 0 C1.65 0 3.3 0 5 0 C5 1.65 5 3.3 5 5 C3.35 5 1.7 5 0 5 C0 3.35 0 1.7 0 0 Z " fill="#2A3A46" transform="translate(124,30)"/>
<path d="M0 0 C0.33 0 0.66 0 1 0 C1.33 2.97 1.66 5.94 2 9 C0.68 8.67 -0.64 8.34 -2 8 C-2.33 7.01 -2.66 6.02 -3 5 C-1.625 2.3125 -1.625 2.3125 0 0 Z " fill="#DBDFE1" transform="translate(14,12)"/>
<path d="M0 0 C2.475 0.495 2.475 0.495 5 1 C4.67 3.64 4.34 6.28 4 9 C3.01 8.34 2.02 7.68 1 7 C1.20625 6.21625 1.4125 5.4325 1.625 4.625 C1.74875 3.75875 1.8725 2.8925 2 2 C1.34 1.34 0.68 0.68 0 0 Z " fill="#BABFC1" transform="translate(24,4)"/>
<path d="M0 0 C6.27 0 12.54 0 19 0 C19 0.99 19 1.98 19 3 C18.34 3 17.68 3 17 3 C17 2.34 17 1.68 17 1 C11.39 1 5.78 1 0 1 C0 0.67 0 0.34 0 0 Z " fill="#CD8E50" transform="translate(274,56)"/>
<path d="M0 0 C0.78375 0.04125 1.5675 0.0825 2.375 0.125 C1.735625 0.90875 1.09625 1.6925 0.4375 2.5 C-1.60642313 4.92039281 -1.60642313 4.92039281 -2.625 7.125 C-3.285 7.125 -3.945 7.125 -4.625 7.125 C-4.75 4.75 -4.75 4.75 -4.625 2.125 C-2.625 0.125 -2.625 0.125 0 0 Z " fill="#353534" transform="translate(280.625,65.875)"/>
<path d="M0 0 C0.66 0 1.32 0 2 0 C2 3.63 2 7.26 2 11 C1.34 11 0.68 11 0 11 C-0.19406478 9.35492782 -0.38007935 7.70890406 -0.5625 6.0625 C-0.66691406 5.14597656 -0.77132813 4.22945313 -0.87890625 3.28515625 C-0.91886719 2.53105469 -0.95882813 1.77695313 -1 1 C-0.67 0.67 -0.34 0.34 0 0 Z " fill="#393935" transform="translate(273,63)"/>
<path d="M0 0 C1.18771723 3.42943519 0.80226223 5.37784675 -0.4375 8.75 C-0.86869141 9.94882812 -0.86869141 9.94882812 -1.30859375 11.171875 C-1.65083984 12.07679687 -1.65083984 12.07679687 -2 13 C-2.33 13 -2.66 13 -3 13 C-3.31563182 7.73946963 -2.66590937 4.55426184 0 0 Z " fill="#3C464B" transform="translate(30,7)"/>
<path d="M0 0 C0.66 0.33 1.32 0.66 2 1 C1.67 3.64 1.34 6.28 1 9 C0.01 8.67 -0.98 8.34 -2 8 C-2.33 6.35 -2.66 4.7 -3 3 C-2.01 3 -1.02 3 0 3 C0 2.01 0 1.02 0 0 Z " fill="#262626" transform="translate(136,67)"/>
<path d="M0 0 C0.78375 0.04125 1.5675 0.0825 2.375 0.125 C2.705 1.445 3.035 2.765 3.375 4.125 C3.045 3.465 2.715 2.805 2.375 2.125 C-0.09300047 3.27673355 -1.67283565 4.17283565 -3.625 6.125 C-4.25 4.25 -4.25 4.25 -4.625 2.125 C-2.625 0.125 -2.625 0.125 0 0 Z " fill="#353634" transform="translate(245.625,65.875)"/>
<path d="M0 0 C2.45823172 3.68734758 3.01242616 6.69699971 4 11 C3.01 10.67 2.02 10.34 1 10 C-0.60725635 6.78548731 -0.05748185 3.56387464 0 0 Z " fill="#3E4D58" transform="translate(34,5)"/>
<path d="M0 0 C0.556875 0.28875 1.11375 0.5775 1.6875 0.875 C4.08494645 2.0413253 6.51596939 3.0339881 9 4 C8.67 4.66 8.34 5.32 8 6 C5.21788056 5.62403791 3.4120716 5.32681541 1.1875 3.5625 C0 2 0 2 0 0 Z " fill="#C9CDCF" transform="translate(16,69)"/>
<path d="M0 0 C0.66 0 1.32 0 2 0 C2 2.31 2 4.62 2 7 C1.01 7 0.02 7 -1 7 C-1.04254356 5.00045254 -1.04080783 2.99958364 -1 1 C-0.67 0.67 -0.34 0.34 0 0 Z " fill="#2C2C2C" transform="translate(202,69)"/>
<path d="M0 0 C1.65 0 3.3 0 5 0 C5.33 1.65 5.66 3.3 6 5 C5.67 4.34 5.34 3.68 5 3 C3.02 3 1.04 3 -1 3 C-0.67 2.01 -0.34 1.02 0 0 Z " fill="#363636" transform="translate(256,66)"/>
<path d="M0 0 C5.01113235 1.4317521 6.94469549 3.98445693 10 8 C6.41726669 6.34643078 3.19026533 4.32019297 0 2 C0 1.34 0 0.68 0 0 Z " fill="#3F464A" transform="translate(41,3)"/>
<path d="M0 0 C0.99 0 1.98 0 3 0 C3 1.98 3 3.96 3 6 C2.01 6.33 1.02 6.66 0 7 C0 4.69 0 2.38 0 0 Z " fill="#2A2A2A" transform="translate(102,66)"/>
<path d="M0 0 C1.98 0.99 1.98 0.99 4 2 C3.67 3.65 3.34 5.3 3 7 C2.01 6.67 1.02 6.34 0 6 C0 4.02 0 2.04 0 0 Z " fill="#2B2B2B" transform="translate(169,69)"/>
<path d="M0 0 C1.65 0 3.3 0 5 0 C5.33 0.99 5.66 1.98 6 3 C4.35 2.67 2.7 2.34 1 2 C0.67 2.66 0.34 3.32 0 4 C0 2.68 0 1.36 0 0 Z " fill="#403F40" transform="translate(287,66)"/>
<path d="M0 0 C0.66 0 1.32 0 2 0 C2.66 1.32 3.32 2.64 4 4 C2.02 4.99 2.02 4.99 0 6 C-1.125 2.25 -1.125 2.25 0 0 Z " fill="#959DA4" transform="translate(38,46)"/>
<path d="" fill="#000000" transform="translate(0,0)"/>
<path d="" fill="#000000" transform="translate(0,0)"/>
<path d="" fill="#000000" transform="translate(0,0)"/>
<path d="" fill="#000000" transform="translate(0,0)"/>
<path d="" fill="#000000" transform="translate(0,0)"/>
<path d="" fill="#000000" transform="translate(0,0)"/>
<path d="" fill="#FFFF00" transform="translate(0,0)"/>
<path d="" fill="#000000" transform="translate(0,0)"/>
<path d="" fill="#000000" transform="translate(0,0)"/>
<path d="" fill="#000000" transform="translate(0,0)"/>
<path d="" fill="#000000" transform="translate(0,0)"/>
<path d="" fill="#000000" transform="translate(0,0)"/>
<path d="" fill="#000000" transform="translate(0,0)"/>
</svg>
